<svg width="375" height="366" viewBox="0 0 375 366" fill="none" xmlns="http://www.w3.org/2000/svg">
<g clip-path="url(#clip0_2:41)">
<path d="M363.898 141.954C322.307 70.8487 209.32 96.2252 186.262 61.6519C174.476 43.9395 161.239 23.4169 142.109 12.7724C123.833 2.5537 102.653 -1.10801 84.2062 0.254489C18.2759 5.10838 -9.73597 63.8659 2.98892 128.499C19.8985 214.677 96.5041 302.728 187.457 303.324C235.026 303.665 280.46 286.719 316.158 262.705C316.414 262.535 316.67 262.364 316.927 262.194C352.625 238.01 395.667 196.198 363.898 141.954Z" fill="#0DB8E6"/>
<path opacity="0.7" d="M363.898 141.954C322.307 70.8487 209.32 96.2252 186.262 61.6519C174.476 43.9395 161.239 23.4169 142.109 12.7724C123.833 2.5537 102.653 -1.10801 84.2062 0.254489C18.2759 5.10838 -9.73597 63.8659 2.98892 128.499C19.8985 214.677 96.5041 302.728 187.457 303.324C235.026 303.665 280.46 286.719 316.158 262.705C316.414 262.535 316.67 262.364 316.927 262.194C352.625 238.01 395.667 196.198 363.898 141.954Z" fill="white"/>
<path d="M40.7367 147.149H36.125C25.7914 147.149 17.422 155.495 17.422 165.799V268.241C17.422 278.545 25.7914 286.89 36.125 286.89H99.6641C109.998 286.89 118.367 278.545 118.367 268.241" stroke="#263238" stroke-width="1.1031" stroke-miterlimit="10" stroke-linecap="round" stroke-linejoin="round" stroke-dasharray="4.41 4.41"/>
<path d="M113.158 50.4123V30.2303C113.158 23.9288 118.282 18.8195 124.601 18.8195H207.185C213.505 18.8195 218.629 23.9288 218.629 30.2303" stroke="#263238" stroke-width="1.1031" stroke-miterlimit="10" stroke-linecap="round" stroke-linejoin="round" stroke-dasharray="4.41 4.41"/>
<path d="M187.457 366C277.781 366 351.002 355.782 351.002 343.178C351.002 330.574 277.781 320.356 187.457 320.356C97.134 320.356 23.9125 330.574 23.9125 343.178C23.9125 355.782 97.134 366 187.457 366Z" fill="#0DB8E6"/>
<path opacity="0.5" d="M187.457 366C277.781 366 351.002 355.782 351.002 343.178C351.002 330.574 277.781 320.356 187.457 320.356C97.134 320.356 23.9125 330.574 23.9125 343.178C23.9125 355.782 97.134 366 187.457 366Z" fill="white"/>
<path d="M341.693 77.577V230.943C341.693 241.417 333.238 249.847 322.734 249.847H52.266C41.7616 249.847 33.3068 241.417 33.3068 230.943V77.577C33.3068 77.1512 33.3068 76.7254 33.3922 76.2145C34.0754 66.4215 42.274 58.6724 52.266 58.6724H322.734C332.726 58.6724 340.925 66.4215 341.608 76.2145C341.693 76.7254 341.693 77.1512 341.693 77.577Z" fill="white" stroke="#263238" stroke-width="1.1031" stroke-miterlimit="10" stroke-linecap="round" stroke-linejoin="round"/>
<path d="M315.646 242.694H60.2938C50.4726 242.694 42.5302 234.775 42.5302 224.982V83.3676H333.409V224.982C333.409 234.775 325.467 242.694 315.646 242.694Z" fill="#263238"/>
<path opacity="0.2" d="M333.409 83.3676V224.982C333.409 234.775 325.552 242.694 315.816 242.694H60.123C50.3872 242.694 42.5302 234.775 42.5302 224.982V83.3676H333.409Z" fill="white"/>
<path d="M341.609 76.2996H33.3929C34.0761 66.4215 42.2747 58.6724 52.2667 58.6724H322.735C332.727 58.6724 340.925 66.4215 341.609 76.2996Z" fill="#0DB8E6" stroke="#263238" stroke-width="1.1031" stroke-miterlimit="10"/>
<path d="M71.2252 67.4434C71.2252 69.3168 69.688 70.7645 67.8946 70.7645C66.0157 70.7645 64.5639 69.2317 64.5639 67.4434C64.5639 65.57 66.1011 64.1223 67.8946 64.1223C69.7734 64.1223 71.2252 65.6551 71.2252 67.4434Z" fill="#263238"/>
<path d="M85.402 67.4434C85.402 69.3168 83.8647 70.7645 82.0713 70.7645C80.1924 70.7645 78.7406 69.2317 78.7406 67.4434C78.7406 65.57 80.2778 64.1223 82.0713 64.1223C83.9501 64.1223 85.402 65.6551 85.402 67.4434Z" fill="#263238"/>
<path d="M96.248 70.7645C98.0875 70.7645 99.5787 69.2776 99.5787 67.4434C99.5787 65.6092 98.0875 64.1223 96.248 64.1223C94.4085 64.1223 92.9173 65.6092 92.9173 67.4434C92.9173 69.2776 94.4085 70.7645 96.248 70.7645Z" fill="#263238"/>
<path d="M333.409 83.3676V224.982C333.409 234.775 325.467 242.694 315.646 242.694H60.2938C51.6682 242.694 44.4944 236.563 42.8718 228.388C42.6156 227.281 42.5302 226.174 42.5302 224.982V83.3676H333.409Z" stroke="#263238" stroke-width="1.1031" stroke-miterlimit="10"/>
<path d="M333.153 105.253C331.872 104.571 330.591 103.975 329.225 103.635L327.602 96.4816H320.855L319.233 103.635C317.866 103.975 316.5 104.571 315.304 105.253L309.155 101.335L304.373 106.104L308.216 112.235C307.532 113.513 306.935 114.79 306.593 116.153L299.419 117.771V124.498L306.593 126.116C306.935 127.478 307.532 128.841 308.216 130.118L304.287 136.249L309.07 141.018L315.219 137.101C316.5 137.782 317.781 138.378 319.147 138.719L320.77 145.787H327.517L329.139 138.719C330.506 138.293 331.872 137.782 333.068 137.101L333.409 137.271V105.082L333.153 105.253ZM324.271 129.948C319.403 129.948 315.475 126.031 315.475 121.177C315.475 116.323 319.403 112.406 324.271 112.406C329.139 112.406 333.068 116.323 333.068 121.177C332.982 126.031 329.054 129.948 324.271 129.948Z" fill="#263238"/>
<path d="M210.943 112.15V97.9292L195.912 94.6081C195.058 91.7128 193.948 88.9027 192.496 86.2629L194.289 83.3676H123.32L125.114 86.1777C123.662 88.8175 122.466 91.6277 121.698 94.523L106.667 97.8441V112.065L121.698 115.386C122.466 118.281 123.662 121.092 125.114 123.731L116.83 136.675L126.907 146.724L139.888 138.463C142.536 139.911 145.354 141.103 148.258 141.87L151.588 156.857H165.851L169.181 141.87C172.085 141.018 174.903 139.911 177.465 138.463L190.446 146.724L200.524 136.675L192.325 123.731C193.777 121.092 194.973 118.281 195.741 115.386L210.943 112.15ZM158.848 123.391C148.685 123.391 140.401 115.131 140.401 104.997C140.401 94.8636 148.685 86.6035 158.848 86.6035C169.01 86.6035 177.294 94.8636 177.294 104.997C177.294 115.131 169.01 123.391 158.848 123.391Z" fill="#263238"/>
<path d="M116.061 209.994L116.659 198.669L104.874 195.348C104.361 193.048 103.507 190.749 102.482 188.62L109.571 178.657L101.97 170.227L91.2947 176.188C89.245 174.91 87.11 173.888 84.8041 173.122L82.8399 161.2L71.4814 160.604L68.2362 172.356C65.9303 172.866 63.6245 173.718 61.4894 174.74L51.4974 167.672L43.0426 175.251L49.1061 185.895C47.8251 187.939 46.8003 190.068 46.0316 192.367L42.6156 192.963V208.291L45.0922 208.973C45.6046 211.272 46.4587 213.571 47.4835 215.7L42.6156 222.512L42.9572 228.388L47.9959 234.008L58.6711 228.047C60.7208 229.325 62.8558 230.432 65.1617 231.198L67.1259 242.779L67.2113 243.29L78.5698 243.886L78.9114 242.779L81.9005 232.135C84.2917 231.624 86.5122 230.772 88.6472 229.751L98.5539 236.819L107.009 229.24L101.031 218.595C102.312 216.551 103.336 214.423 104.105 212.123L116.061 209.994ZM85.9144 192.367C80.4486 186.321 71.2252 185.895 65.1617 191.26C59.0982 196.71 58.6711 205.907 64.0515 211.953C69.5172 217.999 78.7406 218.425 84.8041 213.06C90.8677 207.695 91.3801 198.413 85.9144 192.367Z" fill="#263238"/>
<path d="M206.758 193.133C207.185 191.345 207.441 189.557 207.441 187.769L215.555 183.511L213.334 175.251L204.111 175.677C203.171 174.144 202.061 172.696 200.78 171.419L203.513 162.648L196.083 158.39L189.849 165.117C188.14 164.691 186.262 164.436 184.468 164.436L180.198 156.261L171.914 158.475L172.341 167.672C170.804 168.609 169.352 169.716 168.071 170.993L159.275 168.268L155.005 175.677L161.837 181.893C161.41 183.681 161.153 185.469 161.153 187.258L152.955 191.516L155.175 199.776L164.399 199.35C165.338 200.883 166.448 202.33 167.729 203.608L164.997 212.379L172.427 216.637L178.575 209.909C180.369 210.335 182.162 210.59 183.956 210.59L188.226 218.765L196.51 216.551L196.168 208.717L196.083 207.355C197.62 206.418 199.072 205.311 200.438 204.033L209.235 206.758L212.907 200.457L213.505 199.35L206.758 193.133ZM187.286 198.158C181.394 199.776 175.33 196.284 173.708 190.409C172.085 184.533 175.586 178.487 181.479 176.869C187.372 175.251 193.435 178.742 195.058 184.618C196.595 190.494 193.179 196.54 187.286 198.158Z" fill="#263238"/>
<path d="M301.383 207.61L303.262 196.284L291.733 191.686C291.477 189.301 290.879 186.917 290.11 184.618L298.394 175.421L291.733 166.054L280.289 170.908C278.41 169.375 276.361 168.098 274.14 167.076L273.457 154.728L262.099 152.855L257.487 164.266C255.096 164.521 252.704 165.117 250.399 165.884L241.175 157.623L231.781 164.266L236.649 175.591C235.282 177.294 234.172 179.083 233.233 180.956C233.062 181.212 232.977 181.467 232.806 181.723L220.422 182.404L218.544 193.73L220.422 194.496L230.073 198.328C230.329 200.712 230.841 203.097 231.695 205.396L223.412 214.593L230.073 223.96L241.517 219.106C243.396 220.639 245.445 221.916 247.666 222.938L248.349 235.201L259.707 237.074L264.319 225.748C266.71 225.493 269.102 224.897 271.407 224.13L280.631 232.39L290.025 225.663L285.157 214.252C286.694 212.379 287.975 210.25 289.086 208.121L301.383 207.61ZM269.529 207.099C262.867 211.868 253.558 210.335 248.776 203.693C243.993 197.051 245.531 187.769 252.192 183C258.853 178.231 268.162 179.764 272.945 186.406C277.727 193.133 276.19 202.33 269.529 207.099Z" fill="#263238"/>
<path d="M147.404 269.433H58.0733C51.9244 269.433 46.8857 264.409 46.8857 258.278V134.972C46.8857 128.841 51.9244 123.817 58.0733 123.817H147.404C153.553 123.817 158.591 128.841 158.591 134.972V258.278C158.591 264.409 153.638 269.433 147.404 269.433Z" fill="#0DB8E6" stroke="#263238" stroke-width="1.1031" stroke-miterlimit="10"/>
<path opacity="0.2" d="M147.404 269.433H58.0733C51.9244 269.433 46.8857 264.409 46.8857 258.278V134.972C46.8857 128.841 51.9244 123.817 58.0733 123.817H147.404C153.553 123.817 158.591 128.841 158.591 134.972V258.278C158.591 264.409 153.638 269.433 147.404 269.433Z" fill="black"/>
<path d="M169.01 145.957V269.263C169.01 275.394 163.972 280.418 157.823 280.418H68.4924C62.3434 280.418 57.3047 275.394 57.3047 269.263V145.957C57.3047 139.826 62.3434 134.802 68.4924 134.802H157.823C163.972 134.802 169.01 139.826 169.01 145.957Z" fill="white" stroke="#263238" stroke-width="1.1031" stroke-miterlimit="10" stroke-linecap="round" stroke-linejoin="round"/>
<path d="M169.01 145.957V152.599H57.3047V145.957C57.3047 139.826 62.3434 134.802 68.4924 134.802H157.823C163.972 134.802 169.01 139.826 169.01 145.957Z" fill="#0DB8E6" stroke="#263238" stroke-width="1.1031" stroke-miterlimit="10"/>
<path d="M95.3086 160.178H67.8091V164.777H95.3086V160.178Z" fill="#0DB8E6"/>
<path d="M95.3086 201.394H67.8091V205.992H95.3086V201.394Z" fill="#0DB8E6"/>
<path d="M95.3086 238.777H67.8091V243.376H95.3086V238.777Z" fill="#0DB8E6"/>
<path d="M145.867 171.589H67.8091V174.995H145.867V171.589Z" fill="#263238"/>
<path d="M131.775 178.061H67.8091V181.382H131.775V178.061Z" fill="#263238"/>
<path d="M140.145 184.363H67.8091V187.684H140.145V184.363Z" fill="#263238"/>
<path d="M140.145 190.749H67.8091V194.07H140.145V190.749Z" fill="#263238"/>
<path d="M145.867 208.973H67.8091V212.379H145.867V208.973Z" fill="#263238"/>
<path d="M131.775 215.444H67.8091V218.766H131.775V215.444Z" fill="#263238"/>
<path d="M140.145 221.746H67.8091V225.067H140.145V221.746Z" fill="#263238"/>
<path d="M145.867 250.018H67.8091V253.424H145.867V250.018Z" fill="#263238"/>
<path d="M131.775 256.405H67.8091V259.726H131.775V256.405Z" fill="#263238"/>
<path d="M140.145 262.791H67.8091V266.112H140.145V262.791Z" fill="#263238"/>
<path d="M294.893 49.3053V99.1215C294.893 106.445 288.915 112.406 281.57 112.406H166.448C159.104 112.406 153.126 106.445 153.126 99.1215V49.3053C153.126 41.9819 159.104 36.021 166.448 36.021H281.57C288.915 36.021 294.893 41.9819 294.893 49.3053Z" fill="white" stroke="#222221" stroke-width="1.1031" stroke-miterlimit="10"/>
<path d="M294.893 49.3053V50.4123H153.126V49.3053C153.126 41.9819 159.104 36.021 166.448 36.021H281.57C288.915 36.021 294.893 41.9819 294.893 49.3053Z" fill="#0DB8E6" stroke="#263238" stroke-width="1.1031" stroke-miterlimit="10"/>
<path d="M173.878 45.5585C173.11 46.3249 171.743 46.3249 170.975 45.5585C170.206 44.7921 170.206 43.4296 170.975 42.6632C171.743 41.8968 173.11 41.8968 173.878 42.6632C174.732 43.5147 174.732 44.7921 173.878 45.5585Z" fill="#263238"/>
<path d="M183.443 45.5585C182.675 46.3249 181.308 46.3249 180.54 45.5585C179.771 44.7921 179.771 43.4296 180.54 42.6632C181.308 41.8968 182.675 41.8968 183.443 42.6632C184.212 43.5147 184.212 44.7921 183.443 45.5585Z" fill="#263238"/>
<path d="M192.923 45.5585C192.154 46.3249 190.788 46.3249 190.019 45.5585C189.251 44.7921 189.251 43.4296 190.019 42.6632C190.788 41.8968 192.154 41.8968 192.923 42.6632C193.692 43.5147 193.692 44.7921 192.923 45.5585Z" fill="#263238"/>
<path d="M208.466 59.6091H162.093V99.5472H208.466V59.6091Z" stroke="#263238" stroke-width="1.1031" stroke-miterlimit="10" stroke-linecap="round" stroke-linejoin="round" stroke-dasharray="4.41 4.41"/>
<path d="M269.016 59.6091H215.64V62.4193H269.016V59.6091Z" fill="#263238"/>
<path d="M256.547 65.3998H215.64V68.2099H256.547V65.3998Z" fill="#263238"/>
<path d="M276.617 71.1903H215.64V74.0005H276.617V71.1903Z" fill="#263238"/>
<path d="M267.564 76.8958H215.64V79.7059H267.564V76.8958Z" fill="#263238"/>
<path d="M227.511 339.006C227.511 339.006 202.744 346.074 199.328 347.351C196.168 348.458 187.628 351.438 181.223 350.502C180.625 350.416 179.942 350.246 179.43 350.076C172.939 348.117 170.035 346.329 169.181 342.327C168.327 338.239 171.573 335.259 174.647 333.385C177.721 331.427 194.631 329.468 194.631 329.468L198.73 330.66L227.511 339.006Z" fill="#0DB8E6"/>
<path d="M181.223 350.417C180.625 350.331 179.942 350.161 179.43 349.991C172.939 348.032 170.035 346.244 169.181 342.242C168.327 338.154 171.573 335.174 174.647 333.3C177.721 331.342 194.631 329.383 194.631 329.383L198.73 330.575C195.058 332.278 181.308 333.215 178.319 334.918C175.33 336.621 173.878 339.857 175.672 344.285C176.526 346.585 179.088 348.884 181.223 350.417Z" fill="white"/>
<path d="M223.753 340.027C223.753 340.027 205.136 344.796 197.791 347.947C190.446 351.013 176.355 352.375 171.316 345.988C166.278 339.687 170.719 334.152 175.757 332.96C180.796 331.767 190.873 329.809 196.425 330.575" stroke="#263238" stroke-width="1.1031" stroke-miterlimit="10" stroke-linecap="round" stroke-linejoin="round"/>
<path d="M181.565 350.076C181.565 350.076 172.085 344.881 175.245 337.643C177.551 332.278 190.19 333.47 196.425 330.49" stroke="#263238" stroke-width="1.1031" stroke-miterlimit="10" stroke-linecap="round" stroke-linejoin="round"/>
<path d="M302.921 351.609C302.665 354.163 301.811 356.548 299.248 358.081C297.54 359.102 295.149 359.699 291.648 359.613C282.937 359.528 266.625 353.312 266.625 353.312L251.338 344.881L259.28 332.364L261.415 328.957L267.052 330.235C267.052 330.235 271.664 332.874 276.361 334.918C281.058 337.047 292.416 337.473 296.43 340.709C300.444 343.86 303.348 347.351 302.921 351.609Z" fill="#0DB8E6"/>
<path d="M302.921 351.609C302.665 354.163 301.811 356.548 299.248 358.081C299.761 356.122 300.103 353.397 298.821 350.502C297.113 346.67 291.562 343.349 284.218 342.753C276.959 342.156 271.322 338.75 268.418 337.217C266.113 336.025 261.33 333.471 259.28 332.364L261.415 328.957L267.052 330.235C267.052 330.235 271.664 332.874 276.361 334.918C281.058 337.047 292.416 337.473 296.43 340.709C300.444 343.86 303.348 347.351 302.921 351.609Z" fill="white"/>
<path d="M254.669 347.266C265.515 353.482 277.983 357.995 290.452 359.443C293.27 359.784 296.43 359.784 298.309 357.74C299.334 356.548 299.761 354.93 299.59 353.397C299.248 349.48 295.918 346.414 292.331 344.796C288.744 343.263 284.73 342.838 280.887 341.986C277.044 341.135 273.372 339.772 269.87 337.984C267.137 336.536 264.404 334.833 261.415 334.152C258.341 333.47 254.754 334.322 253.131 336.962" stroke="#263238" stroke-width="1.1031" stroke-miterlimit="10" stroke-linecap="round" stroke-linejoin="round"/>
<path d="M297.37 358.762C300.188 357.314 302.494 354.674 302.921 351.523C303.433 347.862 301.384 344.115 298.394 341.816C295.405 339.517 291.733 338.495 288.061 337.728C284.389 336.962 280.631 336.451 277.129 335.088C271.749 332.96 266.454 328.872 260.903 330.32" stroke="#263238" stroke-width="1.1031" stroke-miterlimit="10" stroke-linecap="round" stroke-linejoin="round"/>
<path d="M271.92 215.359L246.043 205.566L245.701 205.481C245.701 205.481 245.787 204.8 245.872 203.778C246.043 201.734 246.128 198.328 245.189 197.221C243.737 195.518 239.638 196.966 235.709 195.092C231.696 193.304 224.351 196.54 224.351 196.54C224.351 196.54 219.056 195.603 216.665 199.435C215.469 202.501 215.896 207.099 215.896 207.099C215.896 207.099 215.725 207.184 215.384 207.269C212.309 208.376 195.571 214.678 191.984 217.233C188.055 220.043 183.7 248.4 182.333 256.745C180.967 265.09 178.49 272.584 179.686 275.479C180.967 278.375 198.987 292.17 209.32 295.746C219.654 299.323 256.462 298.301 256.462 298.301C256.462 298.301 257.06 298.131 258.17 297.79C264.404 295.832 286.438 287.571 298.138 268.241C298.138 268.241 286.865 231.198 271.92 215.359ZM202.061 263.132C200.182 264.494 201.207 269.689 201.207 269.689L197.962 266.879L206.075 246.952L209.576 262.28C209.576 262.195 203.94 261.769 202.061 263.132ZM267.137 275.82C266.283 276.246 269.699 266.708 268.077 264.494C266.454 262.28 261.501 262.536 261.501 262.536L261.928 259.896C262.013 259.64 264.831 244.908 264.831 244.908L265.771 243.716C265.771 243.716 275.848 260.918 277.642 266.964C277.642 267.049 266.625 275.82 267.137 275.82Z" fill="#0DB8E6"/>
<path d="M223.155 153.195L209.833 167.331C209.833 167.331 207.954 168.949 208.722 173.037C209.491 177.124 211.199 180.701 212.48 180.956C213.761 181.212 215.555 181.212 215.555 181.212C215.555 181.212 218.458 187.428 220.422 189.812C220.422 189.812 221.106 199.35 220.764 201.99C220.764 201.99 225.547 206.162 230.073 206.673C234.599 207.184 241.602 200.287 241.602 200.287L243.31 191.856C243.31 191.856 247.41 185.64 247.666 184.022C247.922 182.404 249.801 182.83 250.74 181.978C251.68 181.127 253.815 177.55 254.156 174.059C254.498 170.652 254.498 166.65 250.484 167.842C246.982 166.906 249.203 159.582 249.203 159.582L243.139 154.217L223.155 153.195Z" fill="white"/>
<path opacity="0.5" d="M246.128 205.481C245.958 205.992 245.701 206.503 245.445 207.014C243.225 211.187 233.66 219.021 233.66 219.021L230.756 210.165L229.133 219.021C225.888 217.658 216.152 209.228 216.152 209.228C216.152 209.228 215.811 208.462 215.384 207.184C215.725 207.099 215.896 207.014 215.896 207.014C215.896 207.014 215.469 202.416 216.665 199.35C218.971 195.518 224.351 196.455 224.351 196.455C224.351 196.455 231.696 193.219 235.709 195.007C239.723 196.795 243.823 195.433 245.189 197.136C246.641 198.839 245.787 205.396 245.787 205.396L246.128 205.481Z" fill="white"/>
<path opacity="0.2" d="M271.92 215.359L246.043 205.566L245.701 205.481C245.701 205.481 245.787 204.8 245.872 203.778L245.36 207.099L241.517 212.294C241.517 212.294 248.007 214.593 253.473 217.573C257.316 219.617 259.451 223.705 258.939 227.962L254.156 268.582L252.192 291.659L258.085 297.79C264.319 295.832 286.353 287.572 298.053 268.241C298.138 268.241 286.865 231.198 271.92 215.359ZM267.137 275.82C266.283 276.246 269.699 266.708 268.077 264.494C266.454 262.28 261.501 262.536 261.501 262.536L261.928 259.896C262.013 259.64 264.831 244.908 264.831 244.908L265.771 243.716C265.771 243.716 275.848 260.918 277.642 266.964C277.642 267.049 266.625 275.82 267.137 275.82Z" fill="black"/>
<path opacity="0.2" d="M211.284 264.494L207.271 251.125C207.271 251.125 200.097 226.6 195.143 220.554L196.425 237.84C196.425 237.84 192.154 258.448 188.226 264.579C184.297 270.711 183.443 272.243 188.226 272.243C193.008 272.243 204.623 281.44 204.623 281.44L203.769 273.776L211.284 264.494ZM201.207 269.689L197.962 266.879L206.075 246.952L209.576 262.28C209.576 262.28 204.025 261.854 202.146 263.217C200.182 264.494 201.207 269.689 201.207 269.689Z" fill="black"/>
<path d="M220.337 189.812C220.337 189.812 221.106 197.051 220.337 200.372" stroke="#263238" stroke-width="1.1031" stroke-miterlimit="10" stroke-linecap="round" stroke-linejoin="round"/>
<path d="M242.2 199.35C242.2 199.35 242.2 195.859 242.969 192.452" stroke="#263238" stroke-width="1.1031" stroke-miterlimit="10" stroke-linecap="round" stroke-linejoin="round"/>
<path d="M244.164 158.56C244.164 158.56 248.52 164.095 248.349 168.183C248.093 172.356 247.751 177.295 247.922 182.063C248.007 186.917 240.15 196.966 236.136 197.902C232.123 198.839 228.621 199.009 225.974 196.455C223.412 193.9 220.764 190.323 217.433 185.725C214.017 181.127 214.871 171.078 214.871 171.078" stroke="#263238" stroke-width="1.1031" stroke-miterlimit="10" stroke-linecap="round" stroke-linejoin="round"/>
<path d="M233.66 174.825C233.404 176.358 233.318 177.891 233.318 179.423C233.318 180.701 233.574 182.063 234.428 183C234.941 183.511 235.624 183.852 235.709 184.533C235.795 185.129 235.368 185.725 234.77 185.98C234.258 186.321 233.66 186.491 233.147 186.917" stroke="#263238" stroke-width="1.1031" stroke-miterlimit="10" stroke-linecap="round" stroke-linejoin="round"/>
<path d="M226.657 187.513C226.657 187.513 227.169 190.749 231.525 191.43" stroke="#263238" stroke-width="1.1031" stroke-miterlimit="10" stroke-linecap="round" stroke-linejoin="round"/>
<path d="M227.084 177.295C227.084 178.231 226.657 178.998 226.144 178.998C225.632 178.998 225.205 178.231 225.205 177.295C225.205 176.358 225.632 175.591 226.144 175.591C226.742 175.591 227.084 176.358 227.084 177.295Z" fill="#263238"/>
<path d="M240.15 177.72C240.15 178.657 239.723 179.423 239.211 179.423C238.698 179.423 238.271 178.657 238.271 177.72C238.271 176.784 238.698 176.017 239.211 176.017C239.809 176.017 240.15 176.784 240.15 177.72Z" fill="#263238"/>
<path d="M237.588 173.633C237.588 173.633 241.858 169.375 245.445 174.144" stroke="#263238" stroke-width="2.2062" stroke-miterlimit="10" stroke-linecap="round" stroke-linejoin="round"/>
<path d="M228.536 173.718C228.536 173.718 225.803 170.738 221.618 173.718" stroke="#263238" stroke-width="2.2062" stroke-miterlimit="10" stroke-linecap="round" stroke-linejoin="round"/>
<path d="M220.679 193.815C220.679 193.815 223.241 200.968 229.133 203.012C234.941 205.055 242.712 194.496 242.712 194.496L242.285 193.134C242.285 193.134 237.247 199.691 231.61 198.584C225.974 197.477 220.422 189.898 220.422 189.898L220.679 193.815Z" fill="#263238"/>
<path d="M215.469 180.956C215.469 180.956 211.968 182.149 211.114 179.509C210.174 176.784 207.014 169.716 209.833 167.331C212.565 164.947 214.786 170.482 214.786 170.482" stroke="#263238" stroke-width="1.1031" stroke-miterlimit="10" stroke-linecap="round" stroke-linejoin="round"/>
<path d="M247.922 182.404C247.922 182.404 251.167 183.085 252.107 180.36C253.046 177.635 256.206 170.567 253.388 168.183C250.655 165.799 248.434 171.334 248.434 171.334" stroke="#263238" stroke-width="1.1031" stroke-miterlimit="10" stroke-linecap="round" stroke-linejoin="round"/>
<path d="M214.786 177.295C215.725 177.209 217.348 176.358 217.86 175.506C218.373 174.655 218.544 173.718 218.714 172.781C219.056 170.993 219.227 169.12 219.227 167.331C219.227 166.65 219.227 165.884 219.398 165.202C219.654 164.521 220.081 163.84 220.593 163.329C221.789 161.881 223.241 160.689 224.436 159.242C225.547 157.794 226.401 155.92 226.144 154.132C226.144 154.132 234.001 161.285 245.36 159.071C251.423 157.879 257.316 152.514 256.633 145.872C256.377 143.488 254.583 141.785 252.363 141.189C249.374 140.422 246.641 142.04 243.908 143.062C238.955 144.935 234.087 141.699 229.048 141.189C224.778 140.763 219.483 141.274 217.263 145.531C217.263 145.531 209.491 146.468 206.16 152.77C202.744 159.071 209.235 167.842 209.235 167.842C209.235 167.842 211.797 164.692 215.128 171.078L214.786 177.295Z" fill="#263238"/>
<path d="M244.677 156.942C244.677 156.942 242.712 167.331 247.922 172.356C247.922 172.356 249.032 169.205 250.228 168.438C250.228 168.438 253.131 162.988 249.288 156.942C245.445 150.896 244.677 156.942 244.677 156.942Z" fill="#263238"/>
<path opacity="0.2" d="M254.242 145.106C253.473 148.001 251.082 150.215 248.263 151.322C241.004 154.303 234.001 150.981 226.742 150.385C220.849 149.874 214.274 155.154 213.846 161.285" stroke="white" stroke-width="1.1031" stroke-miterlimit="10" stroke-linecap="round" stroke-linejoin="round"/>
<path opacity="0.2" d="M209.406 159.582C209.491 154.813 212.651 150.215 217.092 148.427" stroke="white" stroke-width="1.1031" stroke-miterlimit="10" stroke-linecap="round" stroke-linejoin="round"/>
<path d="M218.714 199.35C218.714 199.35 223.497 204.63 229.987 207.014C229.987 207.014 238.698 204.544 243.054 198.498" stroke="#263238" stroke-width="1.1031" stroke-miterlimit="10" stroke-linecap="round" stroke-linejoin="round"/>
<path d="M227.553 184.255C231.412 182.49 233.106 177.94 231.336 174.093C229.566 170.245 225.003 168.557 221.145 170.321C217.286 172.086 215.593 176.636 217.362 180.483C219.132 184.331 223.695 186.019 227.553 184.255Z" stroke="#263238" stroke-width="1.1031" stroke-miterlimit="10" stroke-linecap="round" stroke-linejoin="round"/>
<path d="M242.436 184.894C246.649 184.378 249.645 180.554 249.128 176.353C248.61 172.152 244.776 169.165 240.562 169.681C236.349 170.197 233.353 174.02 233.871 178.221C234.388 182.422 238.223 185.41 242.436 184.894Z" stroke="#263238" stroke-width="1.1031" stroke-miterlimit="10" stroke-linecap="round" stroke-linejoin="round"/>
<path d="M220.337 196.54C220.337 196.54 218.031 197.051 216.665 199.435C215.298 201.819 216.152 209.313 216.152 209.313C216.152 209.313 223.155 216.211 229.133 219.106L230.927 209.228L233.66 219.106C233.66 219.106 242.883 212.549 245.445 207.099C245.445 207.099 246.299 200.712 245.445 198.584C244.591 196.455 242.712 196.54 242.712 196.54" stroke="#263238" stroke-width="1.1031" stroke-miterlimit="10" stroke-linecap="round" stroke-linejoin="round"/>
<path d="M209.406 262.536C209.406 262.536 206.673 244.227 203 236.733" stroke="#263238" stroke-width="1.1031" stroke-miterlimit="10" stroke-linecap="round" stroke-linejoin="round"/>
<path d="M195.143 220.554C195.143 220.554 198.645 225.408 200.78 230.006" stroke="#263238" stroke-width="1.1031" stroke-miterlimit="10" stroke-linecap="round" stroke-linejoin="round"/>
<path d="M267.137 234.179C268.077 230.517 269.102 227.366 270.126 225.237" stroke="#263238" stroke-width="1.1031" stroke-miterlimit="10" stroke-linecap="round" stroke-linejoin="round"/>
<path d="M261.415 262.536C261.415 262.536 263.38 250.018 265.771 239.629" stroke="#263238" stroke-width="1.1031" stroke-miterlimit="10" stroke-linecap="round" stroke-linejoin="round"/>
<path d="M264.831 244.908C266.71 242.439 269.443 240.565 272.432 239.714" stroke="#263238" stroke-width="1.1031" stroke-miterlimit="10" stroke-linecap="round" stroke-linejoin="round"/>
<path d="M245.787 205.396C245.787 205.396 261.672 211.698 272.005 215.359C272.005 215.359 284.645 227.196 298.224 268.241C298.224 268.241 285.84 289.104 262.184 295.746" stroke="#263238" stroke-width="1.1031" stroke-miterlimit="10" stroke-linecap="round" stroke-linejoin="round"/>
<path d="M266.198 276.501L277.642 266.964C277.642 266.964 283.705 262.365 289.94 265.516" stroke="#263238" stroke-width="1.1031" stroke-miterlimit="10" stroke-linecap="round" stroke-linejoin="round"/>
<path d="M265.771 243.801C265.771 243.801 275.251 257.682 277.642 267.049" stroke="#263238" stroke-width="1.1031" stroke-miterlimit="10" stroke-linecap="round" stroke-linejoin="round"/>
<path d="M201.292 270.2L197.962 267.049C197.962 267.049 193.008 266.197 187.372 269.944" stroke="#263238" stroke-width="1.1031" stroke-miterlimit="10" stroke-linecap="round" stroke-linejoin="round"/>
<path d="M197.962 267.049C197.962 267.049 202.146 253.424 206.16 246.441" stroke="#263238" stroke-width="1.1031" stroke-miterlimit="10" stroke-linecap="round" stroke-linejoin="round"/>
<path d="M215.896 207.099C215.896 207.099 193.008 215.7 190.788 218.169C188.568 220.639 180.027 268.582 179.771 274.032C179.6 278.971 197.364 289.956 206.246 294.554" stroke="#263238" stroke-width="1.1031" stroke-miterlimit="10" stroke-linecap="round" stroke-linejoin="round"/>
<path d="M298.736 199.35H272.603C269.529 199.35 267.052 196.88 267.052 193.815V178.572C267.052 175.506 269.529 173.037 272.603 173.037H298.736C301.811 173.037 304.287 175.506 304.287 178.572V193.815C304.373 196.88 301.896 199.35 298.736 199.35Z" fill="white" stroke="#263238" stroke-width="1.1031" stroke-miterlimit="10" stroke-linecap="round" stroke-linejoin="round"/>
<path d="M279.094 180.956L272.005 185.384L278.581 191.26" stroke="#263238" stroke-width="1.1031" stroke-miterlimit="10" stroke-linecap="round" stroke-linejoin="round"/>
<path d="M292.16 191.686L298.651 186.236L291.221 181.382" stroke="#263238" stroke-width="1.1031" stroke-miterlimit="10" stroke-linecap="round" stroke-linejoin="round"/>
<path d="M282.595 195.092L287.89 178.572" stroke="#263238" stroke-width="1.1031" stroke-miterlimit="10" stroke-linecap="round" stroke-linejoin="round"/>
<path d="M232.977 223.279C232.977 224.13 232.293 224.812 231.439 224.812C230.585 224.812 229.902 224.13 229.902 223.279C229.902 222.427 230.585 221.746 231.439 221.746C232.293 221.746 232.977 222.427 232.977 223.279Z" fill="#263238"/>
<path d="M259.537 303.496H207.441C206.758 303.496 206.246 302.985 206.246 302.303C206.246 301.622 206.758 301.111 207.441 301.111H259.537C260.22 301.111 260.732 301.622 260.732 302.303C260.732 302.9 260.134 303.496 259.537 303.496Z" fill="#263238"/>
<path d="M261.33 299.408L268.333 266.708C268.76 264.579 267.137 262.536 264.917 262.536H204.025C201.805 262.536 200.182 264.579 200.609 266.708L206.844 298.301C207.185 299.919 208.552 301.026 210.174 301.111L257.829 302.218C259.537 302.218 260.988 301.111 261.33 299.408Z" fill="white" stroke="#263238" stroke-width="1.1031" stroke-miterlimit="10" stroke-linecap="round" stroke-linejoin="round"/>
<path d="M239.126 281.355C239.126 283.995 236.99 286.209 234.258 286.209C231.525 286.209 229.39 284.08 229.39 281.355C229.39 278.63 231.525 276.501 234.258 276.501C236.99 276.501 239.126 278.715 239.126 281.355Z" fill="#263238"/>
<path d="M248.691 265.601H255.864" stroke="#263238" stroke-width="1.1031" stroke-miterlimit="10" stroke-linecap="round" stroke-linejoin="round"/>
<path d="M214.103 265.601H241.602" stroke="#263238" stroke-width="1.1031" stroke-miterlimit="10" stroke-linecap="round" stroke-linejoin="round"/>
<path d="M261.415 334.152L255.864 348.713C255.864 348.713 241.688 345.137 223.582 341.475C204.623 337.558 184.81 332.619 174.562 314.651C173.281 312.437 172.512 309.882 173.024 307.413C174.476 301.196 182.589 299.493 187.97 298.897C191.3 298.471 194.716 298.386 198.047 298.301C199.755 298.301 205.477 297.364 206.844 298.386C206.844 298.386 210.43 301.026 213.419 302.303C216.409 303.581 260.732 301.111 260.732 301.111C260.732 301.111 262.013 298.301 262.099 295.832C269.016 292.34 285.157 289.36 291.989 290.637C302.665 292.681 308.899 298.897 307.789 305.454C306.593 311.926 282.937 329.383 261.415 334.152Z" fill="#263238"/>
<path d="M261.415 334.152C261.415 334.152 247.922 330.575 236.99 323.167C225.974 315.758 217.433 307.157 202.061 308.946" stroke="white" stroke-width="1.1031" stroke-miterlimit="10" stroke-linecap="round" stroke-linejoin="round"/>
<path d="M234.428 321.378C241.346 319.42 246.47 314.906 252.021 310.564C257.914 305.965 264.148 301.622 270.895 298.216" stroke="white" stroke-width="1.1031" stroke-miterlimit="10" stroke-linecap="round" stroke-linejoin="round"/>
<path d="M232.037 178.572H234.087" stroke="#263238" stroke-width="1.1031" stroke-miterlimit="10" stroke-linecap="round" stroke-linejoin="round"/>
</g>
<defs>
<clipPath id="clip0_2:41">
<rect width="375" height="366" fill="white"/>
</clipPath>
</defs>
</svg>
